<svg xmlns="http://www.w3.org/2000/svg" xmlns:xlink="http://www.w3.org/1999/xlink" width="816" zoomAndPan="magnify" viewBox="0 0 612 791.999994" height="1056" preserveAspectRatio="xMidYMid meet" version="1.0"><defs><filter x="0%" y="0%" width="100%" height="100%" id="1ac812a8b9"><feColorMatrix values="0 0 0 0 1 0 0 0 0 1 0 0 0 0 1 0 0 0 1 0" color-interpolation-filters="sRGB"/></filter><clipPath id="f95fbed703"><path d="M 420 100.570312 L 612 100.570312 L 612 691.570312 L 420 691.570312 Z M 420 100.570312 " clip-rule="nonzero"/></clipPath><clipPath id="838fbd43f7"><path d="M 0 100.570312 L 612 100.570312 L 612 171 L 0 171 Z M 0 100.570312 " clip-rule="nonzero"/></clipPath><clipPath id="f5f75be0f7"><path d="M 0 632 L 612 632 L 612 691.570312 L 0 691.570312 Z M 0 632 " clip-rule="nonzero"/></clipPath><mask id="0d18580564"><g filter="url(#1ac812a8b9)"><rect x="-61.2" width="734.4" fill="#000000" y="-79.199999" height="950.399992" fill-opacity="0.3"/></g></mask><clipPath id="781d7c6ad5"><path d="M 2 97 L 564 97 L 564 114.640625 L 2 114.640625 Z M 2 97 " clip-rule="nonzero"/></clipPath><clipPath id="ca9642c025"><rect x="0" width="566" y="0" height="115"/></clipPath><mask id="0318de470b"><g filter="url(#1ac812a8b9)"><rect x="-61.2" width="734.4" fill="#000000" y="-79.199999" height="950.399992" fill-opacity="0.7"/></g></mask><clipPath id="759adae759"><rect x="0" width="145" y="0" height="35"/></clipPath><mask id="e2f8d6d156"><g filter="url(#1ac812a8b9)"><rect x="-61.2" width="734.4" fill="#000000" y="-79.199999" height="950.399992" fill-opacity="0.7"/></g></mask><clipPath id="49edd7c5a8"><path d="M 0.0390625 0.320312 L 71 0.320312 L 71 32.480469 L 0.0390625 32.480469 Z M 0.0390625 0.320312 " clip-rule="nonzero"/></clipPath><clipPath id="0197900076"><rect x="0" width="143" y="0" height="33"/></clipPath></defs><path fill="#9b9b9b" d="M 586.808594 130.101562 L 586.808594 669.453125 L 563.4375 669.453125 L 563.4375 405.15625 C 563.742188 405.394531 564.066406 405.605469 564.40625 405.789062 L 564.40625 419.148438 C 564.40625 419.507812 564.472656 419.855469 564.613281 420.191406 C 564.75 420.523438 564.949219 420.816406 565.203125 421.074219 C 565.457031 421.328125 565.75 421.523438 566.085938 421.664062 C 566.417969 421.800781 566.765625 421.871094 567.125 421.871094 C 567.488281 421.871094 567.835938 421.800781 568.167969 421.664062 C 568.5 421.523438 568.796875 421.328125 569.050781 421.074219 C 569.304688 420.816406 569.503906 420.523438 569.640625 420.191406 C 569.777344 419.855469 569.847656 419.507812 569.847656 419.148438 L 569.847656 405.789062 C 572.617188 404.269531 574.589844 400.496094 574.589844 396.070312 C 574.589844 390.308594 571.25 385.617188 567.125 385.617188 C 565.734375 385.636719 564.503906 386.09375 563.4375 386.988281 L 563.4375 130.101562 Z M 586.808594 130.101562 " fill-opacity="1" fill-rule="nonzero"/><path fill="#9b9b9b" d="M 496.160156 130.101562 L 519.515625 130.101562 L 519.515625 669.421875 L 496.160156 669.421875 Z M 496.160156 130.101562 " fill-opacity="1" fill-rule="nonzero"/><path fill="#9b9b9b" d="M 429.667969 130.101562 L 453.023438 130.101562 L 453.023438 669.421875 L 429.667969 669.421875 Z M 429.667969 130.101562 " fill-opacity="1" fill-rule="nonzero"/><path fill="#9b9b9b" d="M 361.609375 130.101562 L 384.960938 130.101562 L 384.960938 669.421875 L 361.609375 669.421875 Z M 361.609375 130.101562 " fill-opacity="1" fill-rule="nonzero"/><path fill="#9b9b9b" d="M 294.3125 130.101562 L 317.667969 130.101562 L 317.667969 669.421875 L 294.3125 669.421875 Z M 294.3125 130.101562 " fill-opacity="1" fill-rule="nonzero"/><path fill="#9b9b9b" d="M 227.039062 130.101562 L 250.390625 130.101562 L 250.390625 669.421875 L 227.039062 669.421875 Z M 227.039062 130.101562 " fill-opacity="1" fill-rule="nonzero"/><path fill="#9b9b9b" d="M 159.761719 130.101562 L 183.117188 130.101562 L 183.117188 669.421875 L 159.761719 669.421875 Z M 159.761719 130.101562 " fill-opacity="1" fill-rule="nonzero"/><path fill="#9b9b9b" d="M 92.484375 130.101562 L 115.839844 130.101562 L 115.839844 669.421875 L 92.484375 669.421875 Z M 92.484375 130.101562 " fill-opacity="1" fill-rule="nonzero"/><path fill="#9b9b9b" d="M 25.191406 130.101562 L 48.546875 130.101562 L 48.546875 669.421875 L 25.191406 669.421875 Z M 25.191406 130.101562 " fill-opacity="1" fill-rule="nonzero"/><g clip-path="url(#f95fbed703)"><path stroke-linecap="butt" transform="matrix(1.669394, 0, 0, 1.669825, -111.348587, -21.385284)" fill="none" stroke-linejoin="miter" d="M 418.209864 90.720206 L 418.209864 413.719108 L 404.21012 413.719108 L 404.21012 255.440897 C 404.392634 255.583596 404.586847 255.709919 404.79042 255.819867 L 404.79042 263.820332 C 404.79042 264.035549 404.830199 264.243748 404.914436 264.44493 C 404.996333 264.643772 405.115669 264.81922 405.267764 264.973615 C 405.419859 265.125671 405.595353 265.242637 405.796586 265.326852 C 405.995479 265.408728 406.203732 265.450836 406.419005 265.450836 C 406.636618 265.450836 406.844871 265.408728 407.043764 265.326852 C 407.242657 265.242637 407.420491 265.125671 407.572586 264.973615 C 407.724681 264.81922 407.844017 264.643772 407.925914 264.44493 C 408.007811 264.243748 408.04993 264.035549 408.04993 263.820332 L 408.04993 255.819867 C 409.708933 254.909872 410.890593 252.650092 410.890593 249.999645 C 410.890593 246.549152 408.889961 243.739632 406.419005 243.739632 C 405.585993 243.751328 404.848918 244.025029 404.21012 244.560732 L 404.21012 90.720206 Z M 418.209864 90.720206 " stroke="#131313" stroke-width="6.05" stroke-opacity="1" stroke-miterlimit="10"/></g><path stroke-linecap="butt" transform="matrix(1.669394, 0, 0, 1.669825, -111.348587, -21.385284)" fill="none" stroke-linejoin="miter" d="M 363.90967 90.720206 L 377.900054 90.720206 L 377.900054 413.700393 L 363.90967 413.700393 Z M 363.90967 90.720206 " stroke="#131313" stroke-width="6.05" stroke-opacity="1" stroke-miterlimit="10"/><path stroke-linecap="butt" transform="matrix(1.669394, 0, 0, 1.669825, -111.348587, -21.385284)" fill="none" stroke-linejoin="miter" d="M 324.079543 90.720206 L 338.069928 90.720206 L 338.069928 413.700393 L 324.079543 413.700393 Z M 324.079543 90.720206 " stroke="#131313" stroke-width="6.05" stroke-opacity="1" stroke-miterlimit="10"/><path stroke-linecap="butt" transform="matrix(1.669394, 0, 0, 1.669825, -111.348587, -21.385284)" fill="none" stroke-linejoin="miter" d="M 283.311109 90.720206 L 297.299154 90.720206 L 297.299154 413.700393 L 283.311109 413.700393 Z M 283.311109 90.720206 " stroke="#131313" stroke-width="6.05" stroke-opacity="1" stroke-miterlimit="10"/><path stroke-linecap="butt" transform="matrix(1.669394, 0, 0, 1.669825, -111.348587, -21.385284)" fill="none" stroke-linejoin="miter" d="M 242.998959 90.720206 L 256.989344 90.720206 L 256.989344 413.700393 L 242.998959 413.700393 Z M 242.998959 90.720206 " stroke="#131313" stroke-width="6.05" stroke-opacity="1" stroke-miterlimit="10"/><path stroke-linecap="butt" transform="matrix(1.669394, 0, 0, 1.669825, -111.348587, -21.385284)" fill="none" stroke-linejoin="miter" d="M 202.700849 90.720206 L 216.688893 90.720206 L 216.688893 413.700393 L 202.700849 413.700393 Z M 202.700849 90.720206 " stroke="#131313" stroke-width="6.05" stroke-opacity="1" stroke-miterlimit="10"/><path stroke-linecap="butt" transform="matrix(1.669394, 0, 0, 1.669825, -111.348587, -21.385284)" fill="none" stroke-linejoin="miter" d="M 162.400398 90.720206 L 176.390783 90.720206 L 176.390783 413.700393 L 162.400398 413.700393 Z M 162.400398 90.720206 " stroke="#131313" stroke-width="6.05" stroke-opacity="1" stroke-miterlimit="10"/><path stroke-linecap="butt" transform="matrix(1.669394, 0, 0, 1.669825, -111.348587, -21.385284)" fill="none" stroke-linejoin="miter" d="M 122.099948 90.720206 L 136.090333 90.720206 L 136.090333 413.700393 L 122.099948 413.700393 Z M 122.099948 90.720206 " stroke="#131313" stroke-width="6.05" stroke-opacity="1" stroke-miterlimit="10"/><path stroke-linecap="butt" transform="matrix(1.669394, 0, 0, 1.669825, -111.348587, -21.385284)" fill="none" stroke-linejoin="miter" d="M 81.790138 90.720206 L 95.780522 90.720206 L 95.780522 413.700393 L 81.790138 413.700393 Z M 81.790138 90.720206 " stroke="#131313" stroke-width="6.05" stroke-opacity="1" stroke-miterlimit="10"/><path fill="#9b9b9b" d="M 496.09375 359.335938 L 496.09375 456.9375 L 586.792969 456.9375 L 586.792969 359.335938 Z M 569.847656 405.738281 L 569.847656 419.097656 C 569.847656 419.457031 569.777344 419.804688 569.640625 420.140625 C 569.503906 420.472656 569.304688 420.765625 569.050781 421.023438 C 568.796875 421.277344 568.5 421.472656 568.167969 421.613281 C 567.835938 421.75 567.488281 421.820312 567.125 421.820312 C 566.765625 421.820312 566.417969 421.75 566.085938 421.613281 C 565.75 421.472656 565.457031 421.277344 565.203125 421.023438 C 564.949219 420.765625 564.75 420.472656 564.613281 420.140625 C 564.472656 419.804688 564.40625 419.457031 564.40625 419.097656 L 564.40625 405.738281 C 564.066406 405.554688 563.742188 405.34375 563.4375 405.105469 C 562.839844 404.507812 562.304688 403.859375 561.835938 403.160156 C 561.367188 402.457031 560.96875 401.71875 560.648438 400.9375 C 560.324219 400.160156 560.078125 399.355469 559.914062 398.527344 C 559.75 397.699219 559.667969 396.863281 559.667969 396.019531 C 559.667969 395.175781 559.75 394.339844 559.914062 393.511719 C 560.078125 392.6875 560.324219 391.882812 560.648438 391.101562 C 560.96875 390.324219 561.367188 389.582031 561.835938 388.882812 C 562.304688 388.179688 562.839844 387.53125 563.4375 386.9375 C 564.503906 386.042969 565.734375 385.589844 567.125 385.566406 C 571.25 385.566406 574.589844 390.261719 574.589844 396.019531 C 574.589844 400.496094 572.617188 404.269531 569.847656 405.789062 Z M 569.847656 405.738281 " fill-opacity="1" fill-rule="nonzero"/><path stroke-linecap="butt" transform="matrix(1.669394, 0, 0, 1.669825, -111.348587, -21.385284)" fill-opacity="0.6" fill="#131313" fill-rule="nonzero" stroke-linejoin="miter" d="M 363.869891 228.000705 L 363.869891 286.450888 L 418.200505 286.450888 L 418.200505 228.000705 Z M 408.04993 255.789455 L 408.04993 263.789921 C 408.04993 264.005138 408.007811 264.213337 407.925914 264.414518 C 407.844017 264.61336 407.724681 264.788809 407.572586 264.943204 C 407.420491 265.09526 407.242657 265.212226 407.043764 265.296441 C 406.844871 265.378317 406.636618 265.420425 406.419005 265.420425 C 406.203732 265.420425 405.995479 265.378317 405.796586 265.296441 C 405.595353 265.212226 405.419859 265.09526 405.267764 264.943204 C 405.115669 264.788809 404.996333 264.61336 404.914436 264.414518 C 404.830199 264.213337 404.79042 264.005138 404.79042 263.789921 L 404.79042 255.789455 C 404.586847 255.679508 404.392634 255.553184 404.21012 255.410486 C 403.852112 255.05257 403.531543 254.664244 403.250753 254.245506 C 402.969962 253.824429 402.73129 253.382298 402.539417 252.914434 C 402.345204 252.44891 402.197789 251.967011 402.099512 251.471076 C 402.001235 250.97514 401.952097 250.474526 401.952097 249.969234 C 401.952097 249.463941 402.001235 248.963327 402.099512 248.467392 C 402.197789 247.973796 402.345204 247.491897 402.539417 247.024033 C 402.73129 246.558509 402.969962 246.114039 403.250753 245.695301 C 403.531543 245.274224 403.852112 244.885897 404.21012 244.530321 C 404.848918 243.994617 405.585993 243.723257 406.419005 243.709221 C 408.889961 243.709221 410.890593 246.52108 410.890593 249.969234 C 410.890593 252.650092 409.708933 254.909872 408.04993 255.819867 Z M 408.04993 255.789455 " stroke="#131313" stroke-width="6.05" stroke-opacity="1" stroke-miterlimit="10"/><path fill="#131313" d="M 606.925781 105.871094 L 606.925781 165.984375 L 396.148438 165.984375 C 401.71875 160.515625 406.761719 154.597656 411.277344 148.230469 C 415.796875 141.863281 419.71875 135.144531 423.042969 128.082031 C 426.371094 120.953125 429.015625 113.578125 430.972656 105.957031 Z M 606.925781 105.871094 " fill-opacity="0.2" fill-rule="nonzero"/><path fill="#9b9b9b" d="M 5.074219 105.871094 L 606.910156 105.871094 L 606.910156 165.917969 L 5.074219 165.917969 Z M 5.074219 105.871094 " fill-opacity="1" fill-rule="nonzero"/><path fill="#131313" d="M 5.074219 105.871094 L 606.910156 105.871094 L 606.910156 165.917969 L 5.074219 165.917969 Z M 5.074219 105.871094 " fill-opacity="0.3" fill-rule="nonzero"/><g clip-path="url(#838fbd43f7)"><path stroke-linecap="butt" transform="matrix(1.669394, 0, 0, 1.669825, -111.348587, -21.385284)" fill="none" stroke-linejoin="miter" d="M 69.739548 76.209421 L 430.251095 76.209421 L 430.251095 112.169407 L 69.739548 112.169407 Z M 69.739548 76.209421 " stroke="#131313" stroke-width="6.05" stroke-opacity="1" stroke-miterlimit="10"/></g><path fill="#9b9b9b" d="M 5.074219 637.292969 L 606.910156 637.292969 L 606.910156 686.269531 L 5.074219 686.269531 Z M 5.074219 637.292969 " fill-opacity="1" fill-rule="nonzero"/><path fill="#131313" d="M 5.074219 637.292969 L 606.910156 637.292969 L 606.910156 686.269531 L 5.074219 686.269531 Z M 5.074219 637.292969 " fill-opacity="0.3" fill-rule="nonzero"/><g clip-path="url(#f5f75be0f7)"><path stroke-linecap="butt" transform="matrix(1.669394, 0, 0, 1.669825, -111.348587, -21.385284)" fill="none" stroke-linejoin="miter" d="M 69.739548 394.459508 L 430.251095 394.459508 L 430.251095 423.789869 L 69.739548 423.789869 Z M 69.739548 394.459508 " stroke="#131313" stroke-width="6.05" stroke-opacity="1" stroke-miterlimit="10"/></g><path fill="#131313" d="M 606.925781 637.292969 L 606.925781 686.269531 L 279.105469 686.269531 C 292.859375 678.007812 305.730469 668.546875 317.71875 657.882812 C 324.984375 651.421875 331.867188 644.574219 338.371094 637.34375 Z M 606.925781 637.292969 " fill-opacity="0.2" fill-rule="nonzero"/><path fill="#9b9b9b" d="M 25.140625 352.355469 L 586.726562 352.355469 L 586.726562 369.304688 L 25.140625 369.304688 Z M 25.140625 352.355469 " fill-opacity="1" fill-rule="nonzero"/><path fill="#9b9b9b" d="M 25.140625 447.152344 L 586.726562 447.152344 L 586.726562 464.097656 L 25.140625 464.097656 Z M 25.140625 447.152344 " fill-opacity="1" fill-rule="nonzero"/><g mask="url(#0d18580564)"><g transform="matrix(1, 0, 0, 1, 23, 350)"><g clip-path="url(#ca9642c025)"><path fill="#131313" d="M 2.140625 2.355469 L 563.726562 2.355469 L 563.726562 19.304688 L 2.140625 19.304688 Z M 2.140625 2.355469 " fill-opacity="1" fill-rule="nonzero"/><g clip-path="url(#781d7c6ad5)"><path fill="#131313" d="M 2.140625 97.152344 L 563.726562 97.152344 L 563.726562 114.097656 L 2.140625 114.097656 Z M 2.140625 97.152344 " fill-opacity="1" fill-rule="nonzero"/></g></g></g></g><path stroke-linecap="butt" transform="matrix(1.669394, 0, 0, 1.669825, -111.348587, -21.385284)" fill="none" stroke-linejoin="miter" d="M 81.759719 223.820345 L 418.160726 223.820345 L 418.160726 233.970643 L 81.759719 233.970643 Z M 81.759719 223.820345 " stroke="#131313" stroke-width="6.05" stroke-opacity="1" stroke-miterlimit="10"/><path stroke-linecap="butt" transform="matrix(1.669394, 0, 0, 1.669825, -111.348587, -21.385284)" fill="none" stroke-linejoin="miter" d="M 81.759719 280.590898 L 418.160726 280.590898 L 418.160726 290.738856 L 81.759719 290.738856 Z M 81.759719 280.590898 " stroke="#131313" stroke-width="6.05" stroke-opacity="1" stroke-miterlimit="10"/><g mask="url(#0318de470b)"><g transform="matrix(1, 0, 0, 1, 13, 115)"><g clip-path="url(#759adae759)"><path fill="#ffffff" d="M 6.882812 32.734375 C 6.609375 32.730469 6.339844 32.703125 6.074219 32.648438 C 5.804688 32.59375 5.546875 32.511719 5.296875 32.40625 C 5.042969 32.300781 4.804688 32.171875 4.578125 32.019531 C 4.355469 31.867188 4.144531 31.695312 3.953125 31.5 C 3.761719 31.304688 3.589844 31.097656 3.4375 30.867188 C 3.289062 30.640625 3.160156 30.402344 3.058594 30.148438 C 2.953125 29.898438 2.875 29.636719 2.820312 29.371094 C 2.769531 29.101562 2.742188 28.832031 2.742188 28.558594 L 2.410156 5.632812 C 2.386719 4.453125 2.789062 3.441406 3.609375 2.59375 C 4.410156 1.753906 5.390625 1.332031 6.546875 1.324219 L 67.816406 1.324219 C 68.355469 1.359375 68.871094 1.492188 69.359375 1.722656 C 69.851562 1.953125 70.28125 2.265625 70.652344 2.660156 C 71.023438 3.054688 71.308594 3.503906 71.507812 4.007812 C 71.707031 4.511719 71.804688 5.035156 71.804688 5.574219 C 71.804688 6.117188 71.707031 6.640625 71.507812 7.140625 C 71.308594 7.644531 71.023438 8.09375 70.652344 8.488281 C 70.28125 8.882812 69.851562 9.199219 69.359375 9.429688 C 68.871094 9.660156 68.355469 9.789062 67.816406 9.824219 L 10.753906 9.824219 L 11.023438 28.425781 C 11.027344 28.703125 11.007812 28.976562 10.960938 29.246094 C 10.914062 29.519531 10.839844 29.785156 10.742188 30.039062 C 10.644531 30.296875 10.519531 30.542969 10.375 30.777344 C 10.226562 31.007812 10.058594 31.226562 9.867188 31.425781 C 9.675781 31.625 9.46875 31.804688 9.246094 31.964844 C 9.019531 32.125 8.78125 32.257812 8.53125 32.371094 C 8.277344 32.484375 8.019531 32.570312 7.75 32.632812 C 7.480469 32.691406 7.207031 32.726562 6.933594 32.734375 Z M 6.882812 32.734375 " fill-opacity="1" fill-rule="nonzero"/><path fill="#ffffff" d="M 101.152344 10.242188 C 97.8125 10.242188 94.390625 10.242188 91.136719 10.242188 C 90.597656 10.203125 90.082031 10.066406 89.59375 9.832031 C 89.105469 9.597656 88.679688 9.277344 88.3125 8.878906 C 87.945312 8.480469 87.664062 8.03125 87.46875 7.523438 C 87.273438 7.019531 87.179688 6.496094 87.183594 5.953125 C 87.191406 5.410156 87.296875 4.890625 87.5 4.386719 C 87.703125 3.886719 87.992188 3.4375 88.367188 3.046875 C 88.742188 2.65625 89.175781 2.347656 89.671875 2.125 C 90.164062 1.898438 90.679688 1.769531 91.21875 1.742188 C 98.984375 1.910156 107.078125 1.742188 114.925781 1.742188 C 122.773438 1.742188 130.96875 1.574219 138.863281 1.742188 C 139.40625 1.78125 139.917969 1.917969 140.40625 2.152344 C 140.894531 2.390625 141.324219 2.707031 141.691406 3.105469 C 142.058594 3.503906 142.339844 3.953125 142.53125 4.460938 C 142.726562 4.964844 142.820312 5.488281 142.816406 6.03125 C 142.8125 6.574219 142.707031 7.09375 142.503906 7.597656 C 142.296875 8.097656 142.007812 8.546875 141.632812 8.9375 C 141.257812 9.328125 140.824219 9.636719 140.332031 9.863281 C 139.839844 10.085938 139.324219 10.214844 138.78125 10.242188 C 131.019531 10.074219 122.921875 10.160156 115.09375 10.242188 C 110.453125 10.191406 105.792969 10.242188 101.152344 10.242188 Z M 101.152344 10.242188 " fill-opacity="1" fill-rule="nonzero"/></g></g></g><g mask="url(#e2f8d6d156)"><g transform="matrix(1, 0, 0, 1, 17, 646)"><g clip-path="url(#0197900076)"><g clip-path="url(#49edd7c5a8)"><path fill="#ffffff" d="M 5.203125 32.269531 C 4.929688 32.269531 4.660156 32.242188 4.394531 32.183594 C 4.125 32.128906 3.867188 32.050781 3.617188 31.945312 C 3.363281 31.839844 3.125 31.707031 2.898438 31.554688 C 2.675781 31.402344 2.464844 31.230469 2.273438 31.035156 C 2.082031 30.84375 1.910156 30.632812 1.757812 30.40625 C 1.609375 30.179688 1.480469 29.9375 1.378906 29.6875 C 1.273438 29.433594 1.195312 29.175781 1.140625 28.90625 C 1.089844 28.640625 1.0625 28.371094 1.0625 28.097656 L 0.730469 5.171875 C 0.707031 3.992188 1.109375 2.976562 1.929688 2.132812 C 2.726562 1.28125 3.707031 0.859375 4.867188 0.863281 L 66.136719 0.863281 C 66.414062 0.863281 66.691406 0.890625 66.964844 0.941406 C 67.234375 0.996094 67.5 1.078125 67.757812 1.183594 C 68.015625 1.292969 68.261719 1.421875 68.492188 1.578125 C 68.722656 1.730469 68.9375 1.90625 69.132812 2.105469 C 69.332031 2.300781 69.507812 2.515625 69.660156 2.746094 C 69.816406 2.976562 69.945312 3.222656 70.054688 3.480469 C 70.160156 3.738281 70.242188 4.003906 70.292969 4.277344 C 70.347656 4.546875 70.375 4.824219 70.375 5.101562 C 70.375 5.382812 70.347656 5.65625 70.292969 5.929688 C 70.242188 6.203125 70.160156 6.46875 70.054688 6.726562 C 69.945312 6.984375 69.816406 7.226562 69.660156 7.460938 C 69.507812 7.691406 69.332031 7.90625 69.132812 8.101562 C 68.9375 8.300781 68.722656 8.476562 68.492188 8.628906 C 68.261719 8.785156 68.015625 8.914062 67.757812 9.023438 C 67.5 9.128906 67.234375 9.207031 66.964844 9.261719 C 66.691406 9.316406 66.414062 9.34375 66.136719 9.34375 L 9.125 9.34375 L 9.394531 27.964844 C 9.398438 28.238281 9.378906 28.511719 9.332031 28.785156 C 9.285156 29.054688 9.210938 29.320312 9.113281 29.578125 C 9.015625 29.835938 8.890625 30.078125 8.742188 30.3125 C 8.597656 30.546875 8.429688 30.761719 8.238281 30.960938 C 8.046875 31.164062 7.839844 31.34375 7.617188 31.5 C 7.390625 31.660156 7.152344 31.796875 6.902344 31.90625 C 6.648438 32.019531 6.386719 32.105469 6.121094 32.167969 C 5.851562 32.230469 5.578125 32.265625 5.304688 32.269531 Z M 5.203125 32.269531 " fill-opacity="1" fill-rule="nonzero"/></g><path fill="#ffffff" d="M 99.523438 9.746094 C 96.183594 9.746094 92.761719 9.746094 89.507812 9.644531 C 89.230469 9.644531 88.953125 9.617188 88.679688 9.5625 C 88.40625 9.507812 88.140625 9.429688 87.882812 9.324219 C 87.628906 9.214844 87.382812 9.085938 87.152344 8.929688 C 86.921875 8.777344 86.707031 8.601562 86.507812 8.402344 C 86.3125 8.207031 86.136719 7.992188 85.980469 7.761719 C 85.828125 7.527344 85.695312 7.285156 85.589844 7.027344 C 85.484375 6.769531 85.402344 6.503906 85.347656 6.230469 C 85.292969 5.957031 85.265625 5.683594 85.265625 5.402344 C 85.265625 5.125 85.292969 4.847656 85.347656 4.578125 C 85.402344 4.304688 85.484375 4.039062 85.589844 3.78125 C 85.695312 3.523438 85.828125 3.277344 85.980469 3.046875 C 86.136719 2.816406 86.3125 2.601562 86.507812 2.40625 C 86.707031 2.207031 86.921875 2.03125 87.152344 1.878906 C 87.382812 1.722656 87.628906 1.59375 87.882812 1.484375 C 88.140625 1.378906 88.40625 1.296875 88.679688 1.242188 C 88.953125 1.191406 89.230469 1.164062 89.507812 1.164062 L 89.589844 1.164062 C 97.351562 1.328125 105.449219 1.246094 113.28125 1.164062 C 121.109375 1.078125 129.339844 0.996094 137.234375 1.164062 C 137.515625 1.164062 137.789062 1.191406 138.0625 1.242188 C 138.335938 1.296875 138.601562 1.378906 138.859375 1.484375 C 139.117188 1.59375 139.359375 1.722656 139.589844 1.878906 C 139.824219 2.03125 140.035156 2.207031 140.234375 2.40625 C 140.429688 2.601562 140.605469 2.816406 140.761719 3.046875 C 140.914062 3.277344 141.046875 3.523438 141.152344 3.78125 C 141.257812 4.039062 141.339844 4.304688 141.394531 4.578125 C 141.449219 4.847656 141.476562 5.125 141.476562 5.402344 C 141.476562 5.683594 141.449219 5.957031 141.394531 6.230469 C 141.339844 6.503906 141.257812 6.769531 141.152344 7.027344 C 141.046875 7.285156 140.914062 7.527344 140.761719 7.761719 C 140.605469 7.992188 140.429688 8.207031 140.234375 8.402344 C 140.035156 8.601562 139.824219 8.777344 139.589844 8.929688 C 139.359375 9.085938 139.117188 9.214844 138.859375 9.324219 C 138.601562 9.429688 138.335938 9.507812 138.0625 9.5625 C 137.789062 9.617188 137.515625 9.644531 137.234375 9.644531 L 137.085938 9.644531 C 129.324219 9.476562 121.226562 9.5625 113.378906 9.644531 C 108.824219 9.695312 104.164062 9.746094 99.523438 9.746094 Z M 99.523438 9.746094 " fill-opacity="1" fill-rule="nonzero"/></g></g></g></svg>