<svg xmlns="http://www.w3.org/2000/svg" xmlns:xlink="http://www.w3.org/1999/xlink" width="816" zoomAndPan="magnify" viewBox="0 0 612 791.999994" height="1056" preserveAspectRatio="xMidYMid meet" version="1.0"><defs><clipPath id="4b1030572b"><path d="M 0 304.199219 L 612 304.199219 L 612 487.800781 L 0 487.800781 Z M 0 304.199219 " clip-rule="nonzero"/></clipPath><clipPath id="c81c8412cb"><path d="M 0.00390625 304.199219 L 611.996094 304.199219 L 611.996094 487.796875 L 0.00390625 487.796875 Z M 0.00390625 304.199219 " clip-rule="nonzero"/></clipPath><clipPath id="59fc524a10"><path d="M 214.199219 90 L 397.800781 90 L 397.800781 702 L 214.199219 702 Z M 214.199219 90 " clip-rule="nonzero"/></clipPath><clipPath id="6ca1df3ba5"><path d="M 214.199219 90.003906 L 397.796875 90.003906 L 397.796875 701.996094 L 214.199219 701.996094 Z M 214.199219 90.003906 " clip-rule="nonzero"/></clipPath><clipPath id="861bb9a93e"><path d="M 7.503906 311.761719 L 604.496094 311.761719 L 604.496094 479.519531 L 7.503906 479.519531 Z M 7.503906 311.761719 " clip-rule="nonzero"/></clipPath></defs><g clip-path="url(#4b1030572b)"><path fill="#ff3131" d="M 0 304.199219 L 611.761719 304.199219 L 611.761719 487.800781 L 0 487.800781 Z M 0 304.199219 " fill-opacity="1" fill-rule="nonzero"/></g><g clip-path="url(#c81c8412cb)"><path stroke-linecap="butt" transform="matrix(0.75, 0, 0, 0.75, 0.00391598, 304.200005)" fill="none" stroke-linejoin="miter" d="M -0.0000129725 -0.00104821 L 815.989559 -0.00104821 L 815.989559 244.795823 L -0.0000129725 244.795823 Z M -0.0000129725 -0.00104821 " stroke="#ffffff" stroke-width="20" stroke-opacity="1" stroke-miterlimit="4"/></g><g clip-path="url(#59fc524a10)"><path fill="#ff3131" d="M 214.199219 90 L 397.800781 90 L 397.800781 701.761719 L 214.199219 701.761719 Z M 214.199219 90 " fill-opacity="1" fill-rule="nonzero"/></g><g clip-path="url(#6ca1df3ba5)"><path stroke-linecap="butt" transform="matrix(0.75, 0, 0, 0.75, 214.199992, 90.003928)" fill="none" stroke-linejoin="miter" d="M -0.00103074 -0.0000283785 L 244.795841 -0.0000283785 L 244.795841 815.989543 L -0.00103074 815.989543 Z M -0.00103074 -0.0000283785 " stroke="#ffffff" stroke-width="20" stroke-opacity="1" stroke-miterlimit="4"/></g><g clip-path="url(#861bb9a93e)"><path fill="#ff3131" d="M 7.503906 311.761719 L 604.496094 311.761719 L 604.496094 479.519531 L 7.503906 479.519531 Z M 7.503906 311.761719 " fill-opacity="1" fill-rule="nonzero"/></g></svg>